<svg xmlns="http://www.w3.org/2000/svg" width="89" height="29"><path fill-rule="evenodd" d="M85.5 28.5v-3c-.912 1.881-3.063 3-5.5 3-4.15 0-7-3.268-7-8.5 0-5.217 2.85-8.5 7-8.5 2.389 0 4.62 1.65 5.5 3.5V5.5H89v23h-3.5zm-4.5-14c-2.484 0-4.5 2.259-4.5 5.5 0 3.256 2.023 5.556 4.506 5.556 2.468 0 4.494-2.331 4.494-5.556 0-3.209-2.032-5.5-4.5-5.5zm-13.5 4v10h-4v-17h4v3.291h.079c.535-1.976 1.956-3.291 3.921-3.291.503 0 .701-.079 1 0V15H71c-2.217 0-3.5 1.129-3.5 3.5zm-10 10v-3c-.918 1.812-3.323 3-5.5 3-3.235 0-5.504-1.585-5.504-4.616 0-3.031 2.271-4.779 6.423-5.035L57.5 18.5v-1c0-1.781-1.511-3.029-3.5-3.023-1.68.006-2.751.676-3 2.023h-3.5c.109-3.127 2.729-4.996 6.664-4.996 4.137 0 6.843 2.213 6.843 5.597L61 28.5h-3.5zm0-7.5h-4c-2.022.144-3.5 1.137-3.5 2.5 0 1.347 1.504 2.485 3.23 2.485 2.224 0 4.27-1.464 4.27-3.485V21zm-22.073 4.54c3.002 0 4.944-1.789 5.573-4.54h4c-.707 4.885-4.139 7.5-9.5 7.5C29.023 28.5 25 24.319 25 17c0-7.272 4.055-11.5 10.5-11.5 5.266 0 8.997 3.1 9.5 8h-4c-.534-2.861-2.56-5-5.5-5-3.899 0-7 3.41-7 8.5 0 5.122 2.997 8.54 6.927 8.54zm-18.671 3.462c-1.84 0-2.5-1.17-4.622-1.17-2.28 0-2.924 1.17-4.669 1.17-1.934 0-3.301-1.866-4.512-3.604-1.572-2.277-2.908-5.849-2.955-9.28-.032-1.818.314-3.604 1.195-5.121C2.434 8.878 4.651 7.44 7.072 7.393c1.855-.064 3.506 1.28 4.637 1.28 1.085 0 3.113-1.28 5.408-1.28.991 0 3.248.078 4.883 2.607-.126.079-2.745 1.977-2.745 5.692C19.397 19.928 22.937 21 23 21c-.063.079-.444 2.437-1.89 4.477-1.147 1.754-2.421 3.525-4.354 3.525zM11.5 7c-.33-1.66.651-3.441 1.5-4.5 1.085-1.28 3.022-2 4.5-2 .094 1.66-.931 3.314-2 4.5-.959 1.28-2.475 2.19-4 2z"/></svg>